<svg width="1343" height="1343" viewBox="0 0 1343 1343" fill="none" xmlns="http://www.w3.org/2000/svg">
<g clip-path="url(#clip0_205_2)">
<path d="M671.5 1343C1042.36 1343 1343 1042.36 1343 671.5C1343 300.641 1042.36 0 671.5 0C300.641 0 0 300.641 0 671.5C0 1042.36 300.641 1343 671.5 1343Z" fill="url(#paint0_linear_205_2)"/>
<path fill-rule="evenodd" clip-rule="evenodd" d="M671.5 381.916C689.269 381.916 703.676 396.321 703.676 414.092V928.908C703.676 946.679 689.269 961.084 671.5 961.084C653.73 961.084 639.323 946.679 639.323 928.908V414.092C639.323 396.321 653.73 381.916 671.5 381.916Z" fill="white"/>
<path fill-rule="evenodd" clip-rule="evenodd" d="M639.323 406.048C639.323 337.472 697.969 285.387 765.904 285.387C815.124 285.387 858.556 312.491 879.316 353.143C938.748 361.797 986.824 410.318 986.824 472.395C986.824 477.922 986.401 483.287 985.629 488.478C1014.51 510.127 1034.03 543.843 1034.03 583.016C1034.03 601.016 1029.78 617.8 1022.52 632.753C1043.9 653.989 1057.61 682.951 1057.61 715.742C1057.61 736.033 1052.2 754.758 1043.21 771.048C1052.2 787.325 1057.61 806.035 1057.61 826.331C1057.61 878.619 1023.27 921.286 977.199 938.529C958.403 982.312 913.992 1012.17 863.342 1013.34C840.102 1040.48 805.014 1057.61 765.904 1057.61C697.969 1057.61 639.323 1005.53 639.323 936.952C639.323 919.183 653.73 904.776 671.5 904.776C689.269 904.776 703.676 919.183 703.676 936.952C703.676 966.129 729.526 993.261 765.904 993.261C789.882 993.261 809.872 980.801 820.198 963.507C826.744 952.548 839.148 946.493 851.816 948.076C853.463 948.282 854.724 948.447 855.723 948.578C858.244 948.908 859.09 949.018 860.277 949.018C891.188 949.018 914.977 928.903 920.846 904.818C923.769 892.82 933.301 883.553 945.374 880.971C974.293 874.783 993.261 851.474 993.261 826.331C993.261 813.947 988.512 802.155 979.807 792.034C969.429 779.971 969.429 762.134 979.807 750.071C988.502 739.961 993.261 728.139 993.261 715.742C993.261 696.468 982.161 678.541 963.451 668.094C954.893 663.316 948.979 654.899 947.387 645.229C945.794 635.56 948.695 625.69 955.267 618.42C964.574 608.129 969.674 595.886 969.674 583.016C969.674 562.124 956.568 542.646 935.04 532.87C919.374 525.756 912.075 507.577 918.474 491.607C921.115 485.016 922.473 478.659 922.473 472.395C922.473 443.59 897.235 416.782 861.602 416.13C861.492 416.144 861.375 416.155 861.254 416.169C860.452 416.254 859.307 416.357 857.945 416.395C843.097 416.82 829.888 407.023 825.983 392.691C819.55 369.088 796.129 349.739 765.904 349.739C729.526 349.739 703.676 376.871 703.676 406.048C703.676 423.817 689.269 438.224 671.5 438.224C653.73 438.224 639.323 423.817 639.323 406.048Z" fill="white"/>
<path fill-rule="evenodd" clip-rule="evenodd" d="M463.684 353.143C484.444 312.491 527.876 285.387 577.096 285.387C645.031 285.387 703.677 337.472 703.677 406.048C703.677 423.817 689.27 438.224 671.5 438.224C653.731 438.224 639.324 423.817 639.324 406.048C639.324 376.871 613.474 349.739 577.096 349.739C546.871 349.739 523.45 369.088 517.017 392.691C513.112 407.023 499.903 416.82 485.055 416.395C483.693 416.357 482.548 416.254 481.746 416.169C481.625 416.155 481.508 416.144 481.399 416.13C445.774 416.782 420.527 443.583 420.527 472.427C420.527 478.652 421.882 485.009 424.526 491.607C430.925 507.577 423.626 525.756 407.962 532.87C386.432 542.646 373.324 562.124 373.324 583.016C373.324 595.891 378.429 608.12 387.709 618.363C394.29 625.626 397.203 635.494 395.618 645.167C394.035 654.838 388.129 663.262 379.574 668.048C360.836 678.531 349.739 696.473 349.739 715.742C349.739 728.139 354.498 739.961 363.193 750.071C373.579 762.144 373.569 779.998 363.171 792.061C354.505 802.115 349.739 813.923 349.739 826.363C349.739 851.465 368.699 874.781 397.626 880.971C409.699 883.553 419.231 892.82 422.154 904.818C428.023 928.903 451.812 949.017 482.723 949.017C483.91 949.017 484.756 948.908 487.278 948.578C488.276 948.447 489.537 948.282 491.184 948.076C503.852 946.493 516.256 952.548 522.802 963.507C533.128 980.801 553.118 993.261 577.096 993.261C613.474 993.261 639.324 966.129 639.324 936.952C639.324 919.183 653.731 904.776 671.5 904.776C689.27 904.776 703.677 919.183 703.677 936.952C703.677 1005.53 645.031 1057.61 577.096 1057.61C537.986 1057.61 502.898 1040.48 479.658 1013.34C429.008 1012.17 384.597 982.312 365.802 938.529C319.738 921.288 285.388 878.627 285.388 826.363C285.388 806.064 290.793 787.332 299.786 771.041C290.798 754.753 285.388 736.029 285.388 715.742C285.388 682.944 299.106 653.987 320.474 632.743C313.216 617.792 308.972 601.009 308.972 583.016C308.972 543.843 328.485 510.127 357.369 488.478C356.599 483.295 356.176 477.94 356.176 472.427C356.176 410.327 404.247 361.799 463.684 353.143Z" fill="white"/>
</g>
<defs>
<linearGradient id="paint0_linear_205_2" x1="671.5" y1="0" x2="671.5" y2="1343" gradientUnits="userSpaceOnUse">
<stop stop-color="#1AAB9B"/>
<stop offset="1" stop-color="#D61414"/>
</linearGradient>
<clipPath id="clip0_205_2">
<rect width="1343" height="1343" fill="white"/>
</clipPath>
</defs>
</svg>
